HIERARCHY
ROOT hip
{
  OFFSET 0 0 0
  CHANNELS 6 Xposition Yposition Zposition Zrotation Yrotation Xrotation
  JOINT abdomen
  {
    OFFSET 0 20.6881 -0.73152
    CHANNELS 3 Zrotation Xrotation Yrotation
    JOINT chest
    {
      OFFSET 0 11.7043 -0.48768
      CHANNELS 3 Zrotation Xrotation Yrotation
      JOINT neck
      {
        OFFSET 0 22.1894 -2.19456
        CHANNELS 3 Zrotation Xrotation Yrotation
        JOINT head
        {
          OFFSET -0.24384 7.07133 1.2192
          CHANNELS 3 Zrotation Xrotation Yrotation
          JOINT leftEye
          {
            OFFSET 4.14528 8.04674 8.04672
            CHANNELS 3 Zrotation Xrotation Yrotation
            End Site
            {
              OFFSET 1 0 0
            }
          }
          JOINT rightEye
          {
            OFFSET -3.6576 8.04674 8.04672
            CHANNELS 3 Zrotation Xrotation Yrotation
            End Site
            {
              OFFSET 1 0 0
            }
          }
        }
      }
      JOINT rCollar
      {
        OFFSET -2.68224 19.2634 -4.8768
        CHANNELS 3 Zrotation Xrotation Yrotation
        JOINT rShldr
        {
          OFFSET -8.77824 -1.95073 1.46304
          CHANNELS 3 Zrotation Xrotation Yrotation
          JOINT rForeArm
          {
            OFFSET -28.1742 -1.7115 0.48768
            CHANNELS 3 Zrotation Xrotation Yrotation
            JOINT rHand
            {
              OFFSET -22.5879 0.773209 7.07136
              CHANNELS 3 Zrotation Xrotation Yrotation
              JOINT rThumb1
              {
                OFFSET -1.2192 -0.487915 3.41376
                CHANNELS 3 Zrotation Xrotation Yrotation
                JOINT rThumb2
                {
                  OFFSET -3.37035 -0.52449 3.41376
                  CHANNELS 3 Zrotation Xrotation Yrotation
                  End Site
                  {
                    OFFSET -1.78271 -1.18214 1.43049
                  }
                }
              }
              JOINT rIndex1
              {
                OFFSET -7.75947 0.938293 5.60832
                CHANNELS 3 Zrotation Xrotation Yrotation
                JOINT rIndex2
                {
                  OFFSET -2.54057 -0.884171 1.56538
                  CHANNELS 3 Zrotation Xrotation Yrotation
                  End Site
                  {
                    OFFSET -1.62519 -0.234802 1.16502
                  }
                }
              }
              JOINT rMid1
              {
                OFFSET -8.24714 1.18213 3.41376
                CHANNELS 3 Zrotation Xrotation Yrotation
                JOINT rMid2
                {
                  OFFSET -3.10165 -0.590103 1.0647
                  CHANNELS 3 Zrotation Xrotation Yrotation
                  End Site
                  {
                    OFFSET -2.48547 -0.328903 0.83742
                  }
                }
              }
              JOINT rRing1
              {
                OFFSET -8.82822 0.546677 1.51678
                CHANNELS 3 Zrotation Xrotation Yrotation
                JOINT rRing2
                {
                  OFFSET -2.60934 -0.819778 -0.0198488
                  CHANNELS 3 Zrotation Xrotation Yrotation
                  End Site
                  {
                    OFFSET -2.33842 -0.294052 0.168128
                  }
                }
              }
              JOINT rPinky1
              {
                OFFSET -8.27202 -0.0477905 -0.4584
                CHANNELS 3 Zrotation Xrotation Yrotation
                JOINT rPinky2
                {
                  OFFSET -1.82734 -0.647385 -0.700984
                  CHANNELS 3 Zrotation Xrotation Yrotation
                  End Site
                  {
                    OFFSET -1.69225 -0.51767 -0.607171
                  }
                }
              }
            }
          }
        }
      }
      JOINT lCollar
      {
        OFFSET 2.68224 19.2634 -4.8768
        CHANNELS 3 Zrotation Xrotation Yrotation
        JOINT lShldr
        {
          OFFSET 8.77824 -1.95073 1.46304
          CHANNELS 3 Zrotation Xrotation Yrotation
          JOINT lForeArm
          {
            OFFSET 28.1742 -1.7115 0.48768
            CHANNELS 3 Zrotation Xrotation Yrotation
            JOINT lHand
            {
              OFFSET 22.5879 0.773209 7.07136
              CHANNELS 3 Zrotation Xrotation Yrotation
              JOINT lThumb1
              {
                OFFSET 1.2192 -0.487915 3.41376
                CHANNELS 3 Zrotation Xrotation Yrotation
                JOINT lThumb2
                {
                  OFFSET 3.37035 -0.52449 3.41376
                  CHANNELS 3 Zrotation Xrotation Yrotation
                  End Site
                  {
                    OFFSET 1.78271 -1.18214 1.43049
                  }
                }
              }
              JOINT lIndex1
              {
                OFFSET 7.75947 0.938293 5.60832
                CHANNELS 3 Zrotation Xrotation Yrotation
                JOINT lIndex2
                {
                  OFFSET 2.54057 -0.884171 1.56538
                  CHANNELS 3 Zrotation Xrotation Yrotation
                  End Site
                  {
                    OFFSET 1.62519 -0.234802 1.16502
                  }
                }
              }
              JOINT lMid1
              {
                OFFSET 8.24714 1.18213 3.41376
                CHANNELS 3 Zrotation Xrotation Yrotation
                JOINT lMid2
                {
                  OFFSET 3.10165 -0.590103 1.0647
                  CHANNELS 3 Zrotation Xrotation Yrotation
                  End Site
                  {
                    OFFSET 2.48547 -0.328903 0.83742
                  }
                }
              }
              JOINT lRing1
              {
                OFFSET 8.82822 0.546677 1.51678
                CHANNELS 3 Zrotation Xrotation Yrotation
                JOINT lRing2
                {
                  OFFSET 2.60934 -0.819778 -0.0198488
                  CHANNELS 3 Zrotation Xrotation Yrotation
                  End Site
                  {
                    OFFSET 2.33842 -0.294052 0.168128
                  }
                }
              }
              JOINT lPinky1
              {
                OFFSET 8.27202 -0.0477905 -0.4584
                CHANNELS 3 Zrotation Xrotation Yrotation
                JOINT lPinky2
                {
                  OFFSET 1.82734 -0.647385 -0.700984
                  CHANNELS 3 Zrotation Xrotation Yrotation
                  End Site
                  {
                    OFFSET 1.69225 -0.51767 -0.607171
                  }
                }
              }
            }
          }
        }
      }
    }
  }
  JOINT rButtock
  {
    OFFSET -8.77824 4.35084 1.2192
    CHANNELS 3 Zrotation Xrotation Yrotation
    JOINT rThigh
    {
      OFFSET 0 -1.70687 -2.19456
      CHANNELS 3 Zrotation Xrotation Yrotation
      JOINT rShin
      {
        OFFSET 0 -36.8199 0.73152
        CHANNELS 3 Zrotation Xrotation Yrotation
        JOINT rFoot
        {
          OFFSET 0.73152 -45.1104 -5.12064
          CHANNELS 3 Zrotation Xrotation Yrotation
          End Site
          {
            OFFSET -1.1221 -3.69964 12.103
          }
        }
      }
    }
  }
  JOINT lButtock
  {
    OFFSET 8.77824 4.35084 1.2192
    CHANNELS 3 Zrotation Xrotation Yrotation
    JOINT lThigh
    {
      OFFSET 0 -1.70687 -2.19456
      CHANNELS 3 Zrotation Xrotation Yrotation
      JOINT lShin
      {
        OFFSET 0 -36.8199 0.73152
        CHANNELS 3 Zrotation Xrotation Yrotation
        JOINT lFoot
        {
          OFFSET -0.73152 -45.1104 -5.12064
          CHANNELS 3 Zrotation Xrotation Yrotation
          End Site
          {
            OFFSET 1.1221 -3.69964 12.103
          }
        }
      }
    }
  }
}
MOTION
Frames:	5
Frame Time:	0.03333
25.4633 79.7986 -41.8502 52.379986 49.754509 45.692891 -12.804174 27.015222 5.4131 -5.956134 -10.656942 2.588521 -12.186398 24.656982 -90.125963 37.45102 4.32344 120.15929 0.000571 -0.0 -0.00275 0.000571 -0.0 -0.00275 4.225853 -44.097071 -8.516042 26.685605 42.163881 -16.914445 178.323379 -14.483129 38.56386 163.56794 -26.242058 142.578478 -78.030543 38.689355 42.412728 92.519926 -52.792627 35.690246 37.21546 -57.917908 -0.642784 -147.812143 -0.124582 112.812519 89.035242 -81.392994 59.758411 91.968915 -78.37627 63.170653 -71.539537 -72.141318 -88.49583 14.080454 26.718754 -0.982714 -150.578012 31.034604 -146.361864 -137.843705 -12.90407 -133.850879 155.614381 -4.236404 -161.990951 39.368067 26.479041 -10.190941 -174.723999 74.70807 88.120522 10.52622 -5.829782 3.436399 -114.538713 -50.245444 -55.721853 175.977222 -55.303857 -133.247388 140.683897 1.505872 -116.183569 -30.449915 -39.610014 7.116262 148.011286 24.819839 -134.890532 155.287213 16.646931 -139.272252 0.01395 -1.32299 0.416949 -7.930479 24.095997 -3.551752 86.002589 -50.498143 84.370384 24.168598 -40.900487 26.198502 -0.002696 -0.001506 -0.002695 -26.310198 -30.973218 -14.744382 -7.403637 65.986513 154.658188 -91.236016 -0.993285 -170.171911 179.999446 75.749662 -0.0 -137.845515 -13.574102 114.935844 126.241635 -29.033219 -82.356726 40.820781 0.740958 -9.071443
26.489600000000003 81.72460000000001 -43.1557 53.292514 44.514603 46.14196 -16.74694 26.789919 7.088171 -5.974125 -11.159369 1.295961 6.230184 14.894671 55.898267 -31.570447 -2.228759 -25.517502 0.000146 -0.0 -0.002445 0.000146 -0.0 -0.002445 -159.221233 -48.028503 170.414927 -46.981122 83.927272 38.1633 16.595284 70.456678 92.65808 -11.96873 43.56184 4.136053 -179.374327 -16.876826 89.358759 -93.442509 15.377155 36.172405 -1.956219 3.105582 1.141244 -166.696695 -20.374179 109.631969 89.036162 -81.391918 59.760909 -163.683621 -5.370676 143.210081 0.001985 0.063463 0.021602 7.977044 22.981045 3.345738 -158.215875 60.369443 -150.798677 15.841988 43.977586 6.55234 29.827602 58.184441 -32.232777 167.323893 -33.592338 -128.862084 -145.711571 -32.630201 -46.049466 159.197754 30.579225 -133.051963 0.543545 0.536363 -0.086277 171.32299 -76.22118 -108.962425 157.326599 -28.218029 -122.489794 87.103265 56.455112 -69.703773 -89.034401 -81.394322 -59.758767 -167.476084 -64.003892 -132.830759 145.09928 -1.604168 178.624236 6.812217 -61.115451 27.916516 75.778627 -51.667442 74.249651 -50.94855 82.82725 12.670466 179.998377 75.75114 0.001674 145.424692 33.764942 85.771043 61.912506 30.482362 100.638557 -64.149759 25.610589 -174.759207 -0.00034 1.3e-05 0.000437 92.56746 -44.234952 -180.0 117.610378 -11.992341 -145.835004 79.29015 50.193578 -6.593011
27.3414 83.6956 -44.0575 53.539749 38.851628 46.110832 -18.764044 23.103126 -113.756497 10.661221 -1.963645 123.215648 -9.279611 15.129981 -37.081913 16.677036 -23.238355 71.824083 0.002728 -0.0 -0.000597 0.002728 -0.0 -0.000597 -155.474188 -3.322064 161.798133 -14.743786 13.741303 13.780425 -91.653468 29.175846 -104.953223 22.651594 -42.903318 14.286877 4.416723 -4.4007 -0.512186 -163.362252 -75.812811 118.470388 10.281937 -18.182619 -4.584727 20.673411 -10.260584 -1.942215 173.123251 -66.297815 137.613235 6.539577 -10.524203 -0.815086 -145.096836 -1.606409 -178.624212 -154.011845 -12.617746 -177.492446 -144.259086 9.238455 -141.008649 16.990452 43.78333 6.041575 -3.737566 -33.150922 6.412798 34.998428 -64.061771 79.330158 -110.416425 -48.343092 -13.978753 156.077566 36.638245 -130.228252 107.933427 35.148332 -63.317085 -11.378397 -28.342602 -24.978361 145.340295 -6.26451 -118.676626 -11.246494 -2.358301 9.931463 169.090976 -33.247291 -145.374214 150.784268 26.646679 -136.139454 74.840403 72.96161 -92.827737 159.803961 -3.496366 -176.753129 87.57525 -50.206782 85.929576 -3.414061 0.013749 1.043844 179.992222 75.74984 0.006863 142.769911 30.603944 -0.0 -49.474583 46.367345 -104.712822 -160.196501 28.113357 -146.064681 179.981929 75.74984 0.014869 -127.65681 -5.589948 -94.298752 -114.630979 11.992627 -122.089888 -116.341152 -18.085606 157.899493
28.2314 85.6195 -44.552 53.40191 33.705843 45.55564 -23.729547 25.306084 -38.127275 3.926818 -12.283788 48.999078 5.571846 13.861846 50.744851 -32.448174 -2.996229 -20.641107 0.005509 -0.0 -0.001875 -0.000203 -0.0 0.003867 -6.042804 25.599128 7.234312 -143.226194 7.184496 161.64716 101.449085 -33.616893 -106.957652 -160.94986 59.947806 138.248717 83.254477 -50.258628 33.614991 -55.952249 30.409256 17.497345 -151.352813 -17.158391 121.133399 165.187142 -59.249705 103.596894 -15.4235 32.961543 11.296017 -170.980579 -28.578173 144.194131 -145.119356 0.267385 -179.213255 -153.329802 -19.050447 -176.449679 19.449383 67.282422 13.090598 -9.899177 -23.588828 -10.715807 157.797239 -22.115551 -165.467006 36.32135 12.145347 -5.183794 -167.715202 80.269776 111.074657 9.97846 -1.37405 2.795823 -93.02828 -51.084311 -40.501108 33.100783 3.071611 9.029764 173.386196 -52.451358 -119.98168 -1.781142 22.701888 3.351159 160.67393 -6.667805 -143.244853 174.50254 -36.949234 -143.160353 74.839697 72.962139 -92.827527 -4.923262 -24.918929 7.923429 80.938148 -51.229027 79.360131 145.050268 7.512796 141.681384 -179.99292 75.74964 -0.007305 139.095544 27.050148 20.687043 -28.001457 45.731822 -36.543487 -10.378063 -39.237975 72.656577 -179.998625 75.749869 -0.001419 -126.780942 2.494112 -180.0 -109.153153 -66.023848 -159.417069 -69.127739 -40.945986 -166.852498
28.790399999999998 87.358 -44.4208 52.656607 29.604469 44.996744 -25.001665 22.880338 -75.629511 8.769418 -8.182531 86.818354 3.493803 12.484306 35.769107 -28.802047 -10.552916 -7.891797 0.000308 0.0 0.000872 0.000308 0.0 0.000872 -85.5378 68.182468 88.688816 -119.92944 50.603723 122.30627 3.957142 -9.059435 -139.050212 161.829665 -30.389116 141.248119 -171.706322 -9.388226 89.949507 -9.710534 -48.271328 5.092454 -160.016441 -33.011201 122.699383 -4.43916 29.357217 -1.129459 -36.037638 51.722698 29.832512 2.836988 1.674283 0.300714 0.003925 1.771579 0.55525 -77.529954 78.79533 90.797886 -141.700992 1.898196 -138.685321 -25.52142 -40.281124 -27.041039 -1.990016 -14.052854 2.881928 -61.079238 42.141684 20.342189 -170.626914 75.259606 -113.100028 174.201744 1.065535 -142.260607 -178.619311 -18.760118 -89.039623 170.904115 -7.330125 -95.212591 -12.218082 -21.784349 5.118984 156.086162 -9.426531 -110.833589 167.374704 -28.008494 -145.269564 11.702415 33.299418 -9.496334 69.297928 72.947655 -87.016262 158.797958 -27.196089 -179.909663 135.068999 -13.383647 132.469125 161.757513 55.933566 146.896609 -0.000331 0.000901 -0.000331 -48.432543 -33.071149 115.823429 40.659697 -23.32505 -163.805141 89.245567 23.190903 -6.341121 179.987 75.748519 0.008894 -125.929085 16.115858 79.002988 63.449471 -20.764676 -46.742422 -93.802705 12.175203 8.594886
